<svg width="12" height="11" viewBox="0 0 12 11" fill="none" xmlns="http://www.w3.org/2000/svg">
<path fill-rule="evenodd" clip-rule="evenodd" d="M5.70711 10.2071C5.31658 10.5976 4.68342 10.5976 4.29289 10.2071L0.292893 6.20711C-0.0976311 5.81658 -0.0976311 5.18342 0.292893 4.79289L4.29289 0.792894C4.68342 0.402369 5.31658 0.402369 5.70711 0.792894C6.09763 1.18342 6.09763 1.81658 5.70711 2.20711L2.41421 5.5L5.70711 8.79289C6.09763 9.18342 6.09763 9.81658 5.70711 10.2071Z" fill="#999999"/>
<path fill-rule="evenodd" clip-rule="evenodd" d="M11.7071 10.2071C11.3166 10.5976 10.6834 10.5976 10.2929 10.2071L6.29289 6.20711C5.90237 5.81658 5.90237 5.18342 6.29289 4.79289L10.2929 0.792894C10.6834 0.402369 11.3166 0.402369 11.7071 0.792894C12.0976 1.18342 12.0976 1.81658 11.7071 2.20711L8.41421 5.5L11.7071 8.79289C12.0976 9.18342 12.0976 9.81658 11.7071 10.2071Z" fill="#999999"/>
</svg>
